<?xml version="1.0" encoding="UTF-8"?>
<svg xmlns="http://www.w3.org/2000/svg" xmlns:xlink="http://www.w3.org/1999/xlink" width="42pt" height="42pt" viewBox="0 0 42 42" version="1.1">
<g id="surface1">
<path style="fill-rule:nonzero;fill:rgb(94.509804%,89.019608%,80.784314%);fill-opacity:1;stroke-width:3.408;stroke-linecap:butt;stroke-linejoin:miter;stroke:rgb(94.509804%,89.019608%,80.784314%);stroke-opacity:1;stroke-miterlimit:4;" d="M 96.309524 30.392299 C 55 30.392299 31.72619 51.768415 31.72619 95.416295 L 31.72619 545.568638 C 31.72619 586.410156 52.619048 607.786272 93.928571 607.786272 L 545.952381 607.786272 C 587.261905 607.786272 608.154762 587.484933 608.154762 545.568638 L 608.154762 95.416295 C 608.154762 52.843192 587.261905 30.392299 544.642857 30.392299 C 544.642857 30.392299 96.190476 30.272879 96.309524 30.392299 Z M 96.309524 30.392299 " transform="matrix(0.065625,0,0,0.0654206,0,0)"/>
<path style="fill:none;stroke-width:30.655001;stroke-linecap:butt;stroke-linejoin:miter;stroke:rgb(17.254902%,12.54902%,11.764706%);stroke-opacity:1;stroke-miterlimit:4;" d="M 523.571429 479.290737 L 523.571429 178.472656 L 114.821429 178.472656 L 114.821429 479.290737 Z M 523.571429 479.290737 " transform="matrix(0.065625,0,0,0.0654206,0,0)"/>
<path style="fill:none;stroke-width:30.655001;stroke-linecap:butt;stroke-linejoin:miter;stroke:rgb(17.254902%,12.54902%,11.764706%);stroke-opacity:1;stroke-miterlimit:4;" d="M 116.130952 175.606585 L 292.440476 354.258371 C 305.535714 367.454241 329.285714 367.275112 342.083333 354.37779 L 518.27381 177.039621 " transform="matrix(0.065625,0,0,0.0654206,0,0)"/>
<path style="fill:none;stroke-width:30.655001;stroke-linecap:butt;stroke-linejoin:miter;stroke:rgb(17.254902%,12.54902%,11.764706%);stroke-opacity:1;stroke-miterlimit:4;" d="M 123.452381 465.258929 L 258.571429 327.150112 " transform="matrix(0.065625,0,0,0.0654206,0,0)"/>
<path style="fill:none;stroke-width:30.655001;stroke-linecap:butt;stroke-linejoin:miter;stroke:rgb(17.254902%,12.54902%,11.764706%);stroke-opacity:1;stroke-miterlimit:4;" d="M 510.892857 467.468192 L 379.464286 332.882254 " transform="matrix(0.065625,0,0,0.0654206,0,0)"/>
</g>
</svg>
