<svg xmlns="http://www.w3.org/2000/svg" width="30" height="30" viewBox="0 0 30 30">
    <g fill="none" fill-rule="evenodd">
        <g fill="#F1E3CE" fill-rule="nonzero">
            <g>
                <g>
                    <g>
                        <path d="M25.605 0H4.395C1.969 0 0 1.969 0 4.395v21.21C0 28.031 1.969 30 4.395 30h21.21C28.031 30 30 28.031 30 25.605V4.395C30 1.969 28.031 0 25.605 0zM15 22.969c-4.36 0-7.91-3.551-7.91-7.91 0-4.36 3.55-7.91 7.91-7.91s7.91 3.55 7.91 7.91c0 4.359-3.55 7.91-7.91 7.91zM24.5 7.5c-1.1 0-2-.9-2-2s.9-2 2-2 2 .9 2 2-.9 2-2 2zM15 9.506c-3.033 0-5.5 2.467-5.5 5.5s2.467 5.5 5.5 5.5 5.5-2.467 5.5-5.5-2.467-5.5-5.5-5.5z" transform="translate(-1360 -875) translate(50 847) translate(1163 28) translate(147)"/>
                    </g>
                </g>
            </g>
        </g>
    </g>
</svg>
