<?xml version="1.0" encoding="UTF-8"?>
<svg width="183px" height="183px" viewBox="0 0 183 183" version="1.1" xmlns="http://www.w3.org/2000/svg" xmlns:xlink="http://www.w3.org/1999/xlink">
    <!-- Generator: Sketch 51.3 (57544) - http://www.bohemiancoding.com/sketch -->
    <title>Group 2</title>
    <desc>Created with Sketch.</desc>
    <defs>
        <rect id="path-1" x="0" y="0" width="153.6" height="153.6" rx="23.04"></rect>
        <filter x="-17.3%" y="-12.0%" width="134.5%" height="134.5%" filterUnits="objectBoundingBox" id="filter-2">
            <feOffset dx="0" dy="8" in="SourceAlpha" result="shadowOffsetOuter1"></feOffset>
            <feGaussianBlur stdDeviation="7.5" in="shadowOffsetOuter1" result="shadowBlurOuter1"></feGaussianBlur>
            <feColorMatrix values="0 0 0 0 0   0 0 0 0 0   0 0 0 0 0  0 0 0 0.5 0" type="matrix" in="shadowBlurOuter1"></feColorMatrix>
        </filter>
    </defs>
    <g id="Sign-Up/In-Page" stroke="none" stroke-width="1" fill="none" fill-rule="evenodd">
        <g id="Sign-Up/In-|-Default-|-Mobile" transform="translate(-293.000000, -219.000000)">
            <g id="Group-5">
                <g id="Group-3" transform="translate(133.000000, 226.000000)">
                    <g id="Group-2" transform="translate(175.104000, 0.000000)">
                        <g id="Rectangle" opacity="0.898158482">
                            <use fill="black" fill-opacity="1" filter="url(#filter-2)" xlink:href="#path-1"></use>
                            <use fill="#2C201E" fill-rule="evenodd" xlink:href="#path-1"></use>
                        </g>
                        <g id="C_Filled_Secondary_Logo" transform="translate(50.688000, 30.720000)" fill="#F1E3CE" fill-rule="nonzero">
                            <path d="M42.0329985,91.8014008 C41.3972732,91.8014008 40.7615479,91.4901311 40.4436852,91.0232265 L29.6363549,73.5921234 C29.1595609,72.8139492 29.3184923,71.7245052 30.2720802,71.2576007 C31.0667369,70.7906961 32.1792562,70.946331 32.6560501,71.8801401 L43.6223117,89.1556083 C44.0991057,89.9337826 43.9401744,91.0232265 42.9865864,91.4901311 C42.6687238,91.8014008 42.3508611,91.8014008 42.0329985,91.8014008 Z" id="Shape"></path>
                            <path d="M1.81333333,92.16 C0.824242424,92.16 0,91.3793758 0,90.4426269 L0,2.07597237 C0,1.13922338 0.824242424,0.358599222 1.81333333,0.358599222 C2.80242424,0.358599222 3.62666667,1.13922338 3.62666667,2.07597237 L3.62666667,90.4426269 C3.62666667,91.3793758 2.80242424,92.16 1.81333333,92.16 Z" id="Shape"></path>
                            <path d="M16.6885161,0 C11.7925161,0 7.52825806,0.937376747 3.264,2.81213024 C3.264,14.9980279 3.264,59.5234234 3.264,66.553749 C7.52825806,68.4285025 11.6345806,69.2096498 16.6885161,69.2096498 C36.2725161,69.2096498 52.224,53.7429335 52.224,34.6829396 C52.224,15.6229458 36.2725161,0 16.6885161,0 Z M11.6345806,48.118673 C7.37032258,47.8062141 5.63303226,46.8688373 3.264,44.8378544 C3.264,39.5260528 3.264,30.7772032 3.264,27.9650729 C6.26477419,25.4654016 7.37032258,24.9967132 11.6345806,24.6842543 C18.267871,24.6842543 23.6376774,29.9960559 23.6376774,36.4014637 C23.6376774,42.8068714 18.267871,48.118673 11.6345806,48.118673 Z M30.1130323,32.8081861 C30.1130323,32.8081861 30.1130323,32.8081861 30.1130323,32.8081861 C29.4812903,32.8081861 28.8495484,32.3394978 28.8495484,31.7145799 C28.5336774,27.0276962 26.1646452,23.7468776 21.7424516,21.7158946 C21.1107097,21.4034357 20.9527742,20.7785179 21.1107097,20.1536001 C21.4265806,19.5286822 22.0583226,19.3724528 22.6900645,19.5286822 C27.9019355,21.8721241 30.7447742,25.93409 31.2185806,31.5583505 C31.3765161,32.1832683 30.9027097,32.8081861 30.1130323,32.8081861 Z M37.0621935,32.8081861 C37.0621935,32.8081861 37.0621935,32.8081861 37.0621935,32.8081861 C36.4304516,32.8081861 35.7987097,32.3394978 35.7987097,31.7145799 C35.1669677,24.3717954 31.6923871,19.3724528 24.7432258,16.2478636 C24.1114839,15.9354047 23.9535484,15.3104869 24.1114839,14.685569 C24.4273548,14.0606512 25.0590968,13.9044217 25.6908387,14.0606512 C33.2717419,17.4976993 37.3780645,23.2781892 38.0098065,31.402121 C38.1677419,32.1832683 37.6939355,32.8081861 37.0621935,32.8081861 Z M42.9058065,32.0270388 C42.747871,32.0270388 42.747871,32.0270388 42.9058065,32.0270388 C42.2740645,32.0270388 41.6423226,31.5583505 41.6423226,30.9334326 C40.8526452,21.4034357 36.2725161,14.8417985 27.2701935,10.7798326 C26.6384516,10.4673737 26.4805161,9.84245584 26.6384516,9.21753801 C26.9543226,8.59262018 27.5860645,8.43639072 28.2178065,8.59262018 C37.851871,12.967045 43.0637419,20.3098295 44.0113548,30.6209737 C44.0113548,31.402121 43.5375484,32.0270388 42.9058065,32.0270388 Z" id="Shape"></path>
                        </g>
                    </g>
                </g>
            </g>
        </g>
    </g>
</svg>