<svg xmlns="http://www.w3.org/2000/svg" width="30" height="30" viewBox="0 0 30 30">
    <g fill="none" fill-rule="evenodd">
        <g fill="#F1E3CE" fill-rule="nonzero">
            <g>
                <g>
                    <g>
                        <path d="M28.32 1.648C27.22.55 25.897 0 24.35 0H5.62C4.071 0 2.747.55 1.648 1.648.549 2.748 0 4.071 0 5.62v18.73c0 1.548.55 2.872 1.649 3.97 1.099 1.1 2.423 1.65 3.97 1.65h18.73c1.548 0 2.872-.55 3.97-1.65 1.1-1.098 1.65-2.422 1.65-3.97V5.62c0-1.548-.55-2.872-1.65-3.97zm-5.395 9.883c.013.117.02.292.02.527 0 1.092-.16 2.188-.478 3.287-.319 1.1-.807 2.153-1.464 3.16-.656 1.009-1.44 1.9-2.35 2.674-.91.773-2.003 1.392-3.278 1.853-1.275.462-2.64.693-4.097.693-2.263 0-4.357-.612-6.283-1.834.313.04.638.059.976.059 1.886 0 3.583-.586 5.092-1.757-.884-.012-1.674-.285-2.37-.819-.696-.533-1.18-1.21-1.454-2.029.338.052.592.078.761.078.286 0 .618-.052.995-.156-.95-.182-1.75-.653-2.4-1.414-.65-.761-.975-1.63-.975-2.605v-.039c.689.325 1.34.494 1.95.507-1.183-.793-1.775-1.931-1.775-3.414 0-.729.189-1.418.566-2.068 1.027 1.261 2.276 2.27 3.746 3.024 1.47.754 3.044 1.177 4.721 1.268-.065-.247-.097-.56-.097-.937 0-1.131.4-2.097 1.2-2.897.8-.8 1.766-1.2 2.897-1.2 1.197 0 2.192.43 2.985 1.288.898-.17 1.77-.501 2.615-.995-.325 1.001-.93 1.762-1.814 2.282.845-.117 1.632-.338 2.36-.663-.546.832-1.23 1.541-2.049 2.127z" transform="translate(-1305 -875) translate(50 847) translate(1163 28) translate(92)"/>
                    </g>
                </g>
            </g>
        </g>
    </g>
</svg>
